<svg width="24" height="24" viewBox="0 0 24 24" fill="none" xmlns="http://www.w3.org/2000/svg">
<path d="M12.166 14.917C12.8102 14.917 13.3328 15.4388 13.333 16.083C13.333 16.7273 12.8103 17.25 12.166 17.25C11.5219 17.2497 11 16.7271 11 16.083C11.0002 15.439 11.5221 14.9173 12.166 14.917ZM12.166 10.834C12.8102 10.834 13.3328 11.3558 13.333 12C13.3328 12.6442 12.8102 13.167 12.166 13.167C11.5221 13.1667 11.0002 12.644 11 12C11.0002 11.356 11.5221 10.8343 12.166 10.834ZM12.166 6.75C12.8101 6.75 13.3326 7.27202 13.333 7.91602C13.333 8.56035 12.8103 9.08301 12.166 9.08301C11.5219 9.0827 11 8.56016 11 7.91602C11.0004 7.27221 11.5222 6.75031 12.166 6.75Z" fill="#8791A0"/>
</svg>
